<svg xmlns="http://www.w3.org/2000/svg"
    xmlns:xlink="http://www.w3.org/1999/xlink" viewBox="0 0 64 64">
    <defs>
        <linearGradient id="linear-gradient" x1="30" y1="43" x2="34" y2="43" gradientUnits="userSpaceOnUse">
            <stop offset="0" stop-color="#d3e6f5"/>
            <stop offset="1" stop-color="#f0f7fc"/>
        </linearGradient>
        <linearGradient id="linear-gradient-2" x1="46.5" y1="56" x2="49.5" y2="56" xlink:href="#linear-gradient"/>
        <style>.cls-1{fill:#ccd3eb}.cls-2{fill:#f5f7ff}.cls-3{fill:#96a1c3}.cls-8{fill:#033c59}</style>
    </defs>
    <g id="Responsive_display" data-name="Responsive display">
        <path class="cls-1" d="M60 10v28H4V10a6 6 0 0 1 4-5.65A5.8 5.8 0 0 1 10 4h44a6 6 0 0 1 6 6z"/>
        <path class="cls-2" d="M57 10v28H4V10a6 6 0 0 1 4-5.65A5.8 5.8 0 0 1 10 4h41a6 6 0 0 1 6 6z"/>
        <path class="cls-3" d="M60 38v4a6 6 0 0 1-6 6H10a6 6 0 0 1-6-6v-4z"/>
        <path style="fill:#647499" d="M42.29 59H21.71l4.12-12h12.34l4.12 12z"/>
        <path d="M33 44h-2a1 1 0 0 1 0-2h2a1 1 0 0 1 0 2z" style="fill:url(#linear-gradient)"/>
        <path d="M44 61H20a1 1 0 0 1 0-2h24a1 1 0 0 1 0 2z" style="fill:#0668cb"/>
        <path class="cls-3" d="M60 52v4a3.93 3.93 0 0 1-.36 1.64A4 4 0 0 1 56 60H40a4 4 0 0 1-4-4v-4z"/>
        <path class="cls-1" d="M55 52v4a3.93 3.93 0 0 1-.36 1.64A4 4 0 0 1 51 60H40a4 4 0 0 1-4-4v-4z"/>
        <path d="M48.5 57h-1a1 1 0 0 1 0-2h1a1 1 0 0 1 0 2z" style="fill:url(#linear-gradient-2)"/>
        <path class="cls-1" d="M60 25v26H36V23a4 4 0 0 1 4-4h14a6 6 0 0 1 6 6z"/>
        <path class="cls-2" d="M57 25v26H36V23a4 4 0 0 1 4-4h11a6 6 0 0 1 6 6z"/>
        <path class="cls-3" d="M53 20v2a2 2 0 0 1-2 2h-6a2 2 0 0 1-2-2v-2z"/>
        <path class="cls-1" d="M51 20v1a2 2 0 0 1-2 2h-5.73a2 2 0 0 1-.27-1v-2z"/>
        <path class="cls-8" d="M48.5 55h-1a1 1 0 0 0 0 2h1a1 1 0 0 0 0-2zM31 44h2a1 1 0 0 0 0-2h-2a1 1 0 0 0 0 2z"/>
        <path class="cls-8" d="M54 3H10a7 7 0 0 0-7 7v32a7 7 0 0 0 7 7h14.43L21 59h-1a1 1 0 0 0 0 2h36a5 5 0 0 0 5-5V10a7 7 0 0 0-7-7zM5 42v-3h30v8H10a5 5 0 0 1-5-5zm21.54 7H35v7a4.92 4.92 0 0 0 1 3H23.11zM56 59H40a3 3 0 0 1-3-3v-3h22v3a3 3 0 0 1-3 3zM44 21h8v1a1 1 0 0 1-1 1h-6a1 1 0 0 1-1-1zm9-2H40a5 5 0 0 0-5 5 1 1 0 0 0 2 0 3 3 0 0 1 3-3h2v1a3 3 0 0 0 3 3h6a3 3 0 0 0 3-3v-1a5 5 0 0 1 5 5v25H37V33a1 1 0 0 0-2 0v4H5V10a5 5 0 0 1 5-5h44a5 5 0 0 1 5 5v11.11A7 7 0 0 0 54 19z"/>
        <path class="cls-8" d="M35 29a1 1 0 0 0 2 0v-1a1 1 0 0 0-2 0z"/>
    </g>
</svg>