<svg  viewBox="0 0 273 374" fill="currentColor" xmlns="http://www.w3.org/2000/svg">
<path d="M272.392 152.039C272.392 152.299 272.191 152.516 271.932 152.536C251.817 154.087 232.365 151.344 213.406 144.402C194.304 137.406 176.941 126.36 162.51 112.021C148.079 97.6821 136.922 80.3904 129.804 61.3328C122.74 42.42 119.936 20.6219 121.359 0.46251C121.377 0.201304 121.595 0 121.857 0L151.624 0C151.914 0 152.144 0.24454 152.124 0.534517C151.055 16.2306 153.639 35.724 159.115 50.3858C164.653 65.2145 173.334 78.6692 184.563 89.8262C195.792 100.983 209.302 109.578 224.165 115.021C238.86 120.403 256.214 122.531 271.853 121.354C272.144 121.332 272.392 121.562 272.392 121.854V152.039Z" fill="currentColor"/>
<path d="M-9.15527e-05 152.039C-9.15527e-05 152.299 0.200631 152.516 0.460484 152.536C20.5749 154.087 40.0275 151.344 58.9857 144.402C78.0884 137.406 95.4513 126.36 109.882 112.021C124.313 97.6821 135.47 80.3904 142.588 61.3328C149.651 42.4211 152.124 19.8147 150.207 0.447476C150.182 0.192365 149.967 0 149.711 0L120.2 0C119.91 0 119.68 0.244517 119.7 0.534478C120.782 16.2305 118.753 35.724 113.278 50.3858C107.739 65.2145 99.0578 78.6692 87.8291 89.8262C76.6005 100.983 63.0905 109.578 48.2266 115.021C33.5318 120.403 16.178 122.531 0.539032 121.354C0.247934 121.332 -9.15527e-05 121.562 -9.15527e-05 121.854V152.039Z" fill="currentColor"/>
<rect x="119.892" width="32" height="374" rx="0.5" fill="currentColor"/>
</svg>
