<svg  viewBox="0 0 273 375" fill="currentColor" xmlns="http://www.w3.org/2000/svg">
<path d="M272.73 138.688C272.73 146.791 266.497 153.635 258.396 153.458C243.17 153.125 228.311 150.27 213.744 144.936C194.642 137.94 177.279 126.894 162.848 112.555C148.417 98.2163 137.26 80.9246 130.142 61.867C124.665 47.2016 121.749 30.8015 121.378 14.7757C121.193 6.74248 127.946 0.53418 135.982 0.53418V0.53418C144.901 0.53418 151.918 8.13997 152.534 17.0377C153.345 28.7576 155.731 40.9548 159.452 50.92C164.991 65.7487 173.672 79.2033 184.901 90.3603C196.13 101.517 209.64 110.112 224.503 115.556C234.228 119.117 245.117 121.253 255.903 121.95C264.959 122.535 272.73 129.613 272.73 138.688V138.688Z" fill="currentColor"/>
<path d="M0.337799 138.688C0.337799 146.791 6.5713 153.635 14.6715 153.458C29.8981 153.125 44.7568 150.27 59.3236 144.936C78.4263 137.94 95.7892 126.894 110.22 112.555C124.651 98.2163 135.808 80.9246 142.926 61.867C148.405 47.1956 151.122 30.3006 151.17 14.4195C151.194 6.51801 144.493 0.53418 136.591 0.53418V0.53418C127.633 0.53418 120.6 8.16822 120.105 17.113C119.458 28.8098 117.329 40.9761 113.615 50.92C108.077 65.7487 99.3957 79.2033 88.167 90.3603C76.9383 101.517 63.4283 110.112 48.5645 115.556C38.8399 119.117 27.9509 121.253 17.1649 121.95C8.10868 122.535 0.337799 129.613 0.337799 138.688V138.688Z" fill="currentColor"/>
<rect x="120.23" y="0.53418" width="32" height="374" rx="16" fill="currentColor"/>
<circle cx="136.229" cy="358.5" r="16" fill="currentColor"/>
<circle cx="136.229" cy="16.5" r="16" fill="currentColor"/>
</svg>
