<svg viewBox="0 0 154 141" fill="none" xmlns="http://www.w3.org/2000/svg">
<path d="M2.95637 132.708L1.58277 132.105L0.377378 134.852L1.75097 135.455L2.35367 134.081L2.95637 132.708ZM141.561 0.363566C140.858 -0.0760104 139.933 0.136876 139.493 0.839061L132.33 12.2818C131.89 12.984 132.103 13.9096 132.805 14.3492C133.508 14.7887 134.433 14.5759 134.873 13.8737L141.24 3.70233L151.412 10.0697C152.114 10.5093 153.039 10.2964 153.479 9.59422C153.918 8.89203 153.706 7.96645 153.003 7.52688L141.561 0.363566ZM48.6278 93.4124L47.4609 94.3549L48.6278 93.4124ZM126.008 89.093L125.079 87.9157L126.008 89.093ZM78.8603 97.7306L77.5253 97.0468L77.5253 97.0468L78.8603 97.7306ZM60.145 61.38L59.9329 59.895L59.9329 59.895L60.145 61.38ZM2.35367 134.081L1.75097 135.455C2.69067 135.867 3.62523 136.252 4.55457 136.611L5.09499 135.212L5.63541 133.813C4.74871 133.47 3.85567 133.102 2.95637 132.708L2.35367 134.081ZM10.7093 137.074L10.3093 138.52C12.314 139.075 14.2917 139.506 16.2415 139.82L16.48 138.339L16.7185 136.858C14.8802 136.562 13.0102 136.155 11.1093 135.629L10.7093 137.074ZM22.3572 138.93L22.2983 140.429C24.3674 140.51 26.3998 140.459 28.3942 140.283L28.2628 138.789L28.1315 137.295C26.2636 137.459 24.3583 137.507 22.4162 137.431L22.3572 138.93ZM34.1021 137.894L34.4242 139.359C36.4227 138.919 38.3761 138.355 40.2831 137.677L39.7806 136.264L39.2782 134.851C37.4858 135.488 35.6528 136.017 33.78 136.429L34.1021 137.894ZM45.2204 133.957L45.8851 135.302C47.6964 134.406 49.4593 133.409 51.1728 132.319L50.3679 131.053L49.5629 129.787C47.9359 130.822 46.2664 131.767 44.5558 132.612L45.2204 133.957ZM55.1939 127.64L56.1171 128.822C57.6967 127.589 59.2282 126.278 60.7107 124.899L59.6892 123.801L58.6677 122.702C57.2451 124.025 55.779 125.28 54.2708 126.458L55.1939 127.64ZM63.857 119.608L64.9601 120.624C66.3136 119.155 67.62 117.631 68.8783 116.06L67.7074 115.122L66.5366 114.184C65.3196 115.704 64.0584 117.176 62.7539 118.591L63.857 119.608ZM71.2534 110.391L72.481 111.253C73.6292 109.618 74.7301 107.946 75.7826 106.244L74.507 105.455L73.2315 104.666C72.2084 106.32 71.1395 107.943 70.0258 109.529L71.2534 110.391ZM77.4783 100.344L78.795 101.063C79.2742 100.185 79.741 99.3016 80.1954 98.4144L78.8603 97.7306L77.5253 97.0468C77.0827 97.9109 76.6281 98.7707 76.1617 99.6254L77.4783 100.344ZM78.8603 97.7306L80.1954 98.4144C80.738 97.3551 81.2369 96.3202 81.6939 95.3092L80.327 94.6914L78.9601 94.0736C78.5242 95.038 78.0466 96.0289 77.5253 97.0468L78.8603 97.7306ZM82.7259 88.4007L84.1607 88.8381C84.9063 86.3925 85.3739 84.109 85.5918 81.9813L84.0996 81.8285L82.6074 81.6757C82.4116 83.5878 81.9872 85.6801 81.2911 87.9632L82.7259 88.4007ZM83.8458 75.1324L85.3163 74.836C84.7961 72.2554 83.8131 70.0214 82.482 68.1209L81.2534 68.9814L80.0248 69.8419C81.1145 71.3978 81.9355 73.2465 82.3754 75.4288L83.8458 75.1324ZM76.3652 64.4248L77.1543 63.1492C75.1072 61.8829 72.8434 60.989 70.5253 60.4181L70.1666 61.8746L69.8079 63.3311C71.8653 63.8378 73.8307 64.6209 75.5761 65.7005L76.3652 64.4248ZM63.4952 61.123L63.4756 59.6232C62.269 59.6389 61.081 59.7311 59.9329 59.895L60.145 61.38L60.357 62.8649C61.375 62.7195 62.4343 62.637 63.5149 62.6229L63.4952 61.123ZM60.145 61.38L59.9329 59.895C58.6727 60.075 57.4783 60.3538 56.3506 60.7223L56.8164 62.1481L57.2823 63.5739C58.2397 63.2611 59.2641 63.021 60.357 62.8649L60.145 61.38ZM50.8993 65.4655L49.9194 64.3297C48.0141 65.9736 46.5068 67.9554 45.3858 70.1246L46.7184 70.8133L48.051 71.5019C49.0104 69.6453 50.2867 67.9751 51.8791 66.6012L50.8993 65.4655ZM44.6458 77.2904L43.1627 77.0659C42.7985 79.4715 42.803 81.936 43.1707 84.3241L44.6532 84.0958L46.1357 83.8675C45.8142 81.7795 45.8101 79.6203 46.1289 77.515L44.6458 77.2904ZM46.7566 90.5618L45.4302 91.2623C46.0073 92.3551 46.684 93.393 47.4609 94.3549L48.6278 93.4124L49.7948 92.4699C49.1456 91.6661 48.5743 90.7916 48.083 89.8613L46.7566 90.5618ZM48.6278 93.4124L47.4609 94.3549C48.0998 95.1458 48.9108 95.905 49.8538 96.6257L50.7646 95.434L51.6755 94.2422C50.8734 93.6291 50.2489 93.0322 49.7948 92.4699L48.6278 93.4124ZM55.8821 98.4105L55.2569 99.774C56.9708 100.56 58.885 101.29 60.9644 101.942L61.413 100.51L61.8616 99.0791C59.8891 98.4608 58.0941 97.7745 56.5072 97.047L55.8821 98.4105ZM67.1406 102L66.8305 103.468C68.7314 103.87 70.7254 104.207 72.7949 104.468L72.9825 102.98L73.17 101.492C71.1818 101.241 69.2697 100.917 67.4508 100.533L67.1406 102ZM78.8867 103.49L78.8153 104.989C80.783 105.083 82.7994 105.105 84.8519 105.046L84.8088 103.546L84.7658 102.047C82.791 102.104 80.8511 102.082 78.9581 101.992L78.8867 103.49ZM90.7162 103.149L90.8747 104.641C92.8488 104.431 94.8446 104.142 96.8517 103.766L96.5756 102.292L96.2994 100.817C94.3725 101.178 92.4553 101.456 90.5577 101.657L90.7162 103.149ZM102.345 100.965L102.742 102.411C104.663 101.885 106.586 101.273 108.501 100.568L107.982 99.1601L107.464 97.7525C105.632 98.4272 103.79 99.0136 101.949 99.5181L102.345 100.965ZM113.442 96.8734L114.082 98.2299C115.884 97.3793 117.671 96.4384 119.436 95.4014L118.676 94.1082L117.916 92.815C116.231 93.8052 114.524 94.704 112.801 95.5169L113.442 96.8734ZM123.64 90.8771L124.515 92.0955C125.33 91.5103 126.138 90.9021 126.938 90.2703L126.008 89.093L125.079 87.9157C124.315 88.5191 123.543 89.0999 122.765 89.6586L123.64 90.8771ZM126.008 89.093L126.938 90.2703C127.734 89.6422 128.498 88.9859 129.232 88.3034L128.211 87.2048L127.189 86.1062C126.513 86.7347 125.81 87.3384 125.079 87.9157L126.008 89.093ZM132.133 82.947L133.309 83.8776C134.548 82.311 135.674 80.6562 136.694 78.9299L135.403 78.1667L134.111 77.4034C133.155 79.021 132.106 80.563 130.956 82.0164L132.133 82.947ZM138.048 73.0132L139.419 73.6221C140.218 71.8235 140.928 69.9715 141.556 68.0808L140.132 67.6079L138.709 67.135C138.109 68.941 137.434 70.7016 136.678 72.4043L138.048 73.0132ZM141.728 62.0327L143.185 62.388C143.649 60.4838 144.045 58.5545 144.379 56.6131L142.9 56.3587L141.422 56.1043C141.099 57.9835 140.717 59.8452 140.27 61.6774L141.728 62.0327ZM143.712 50.6183L145.202 50.7856C145.422 48.8315 145.587 46.8767 145.707 44.9339L144.209 44.8421L142.712 44.7502C142.596 46.6463 142.434 48.5506 142.221 50.4509L143.712 50.6183ZM144.433 39.0473L145.933 39.0728C145.967 37.0922 145.958 35.1375 145.915 33.223L144.416 33.2565L142.916 33.2901C142.958 35.1681 142.967 37.0833 142.934 39.0218L144.433 39.0473ZM144.181 27.4546L145.678 27.3675C145.561 25.3492 145.411 23.3978 145.241 21.5326L143.747 21.669L142.253 21.8055C142.421 23.6402 142.568 25.5586 142.683 27.5417L144.181 27.4546ZM143.128 15.9016L144.617 15.7183C144.356 13.6025 144.081 11.6618 143.813 9.93678L142.331 10.1667L140.849 10.3967C141.112 12.0933 141.383 14.0028 141.639 16.085L143.128 15.9016ZM141.347 4.47004L142.821 4.18734C142.644 3.2671 142.496 2.54886 142.392 2.05879C142.341 1.81374 142.299 1.6257 142.271 1.49795C142.257 1.43407 142.246 1.38526 142.239 1.35193C142.235 1.33526 142.232 1.32246 142.23 1.31359C142.229 1.30915 142.228 1.30569 142.228 1.30321C142.227 1.30198 142.227 1.30099 142.227 1.30024C142.227 1.29987 142.227 1.29956 142.227 1.29932C142.227 1.29919 142.227 1.29908 142.227 1.29899C142.227 1.29894 142.227 1.29889 142.227 1.29886C142.227 1.29881 142.227 1.29876 140.765 1.63498C139.303 1.97121 139.303 1.97117 139.303 1.97113C139.303 1.97112 139.303 1.97109 139.303 1.97107C139.303 1.97104 139.303 1.97103 139.303 1.97103C139.303 1.97103 139.303 1.97109 139.303 1.97121C139.303 1.97146 139.303 1.97195 139.303 1.97269C139.304 1.97417 139.304 1.97663 139.305 1.98006C139.306 1.98694 139.309 1.99771 139.312 2.01235C139.319 2.04161 139.329 2.08629 139.342 2.14598C139.368 2.26536 139.408 2.44476 139.458 2.68092C139.558 3.15327 139.702 3.85256 139.874 4.75274L141.347 4.47004Z" fill="currentColor"/>
</svg>
